<?xml version="1.0" encoding="UTF-8"?>
<svg xmlns="http://www.w3.org/2000/svg" version="1.1" viewBox="0 0 360 660">
  <defs>
    <style>
      .cls-1 {
        fill: #92278f;
      }

      .cls-2 {
        fill: #ec008c;
      }

      .cls-3 {
        fill: #ef4136;
      }

      .cls-4 {
        fill: #fbb040;
      }

      .cls-5 {
        fill: #27aae1;
      }

      .cls-6 {
        fill: #ed0b77;
      }
    </style>
  </defs>
  <!-- Generator: Adobe Illustrator 28.7.0, SVG Export Plug-In . SVG Version: 1.2.0 Build 136)  -->
  <g>
    <g id="Layer_1">
      <g>
        <polygon class="cls-4" points="120.82 131.22 237.78 131.22 178.81 11.57 120.82 131.22"/>
        <ellipse class="cls-6" cx="179.3" cy="18.21" rx="18.28" ry="18.21"/>
        <path class="cls-1" d="M213.53,82.02c-5.57,2.96-9.37,8.8-9.37,15.53,0,9.71,7.9,17.58,17.65,17.58,2.59,0,5.05-.57,7.26-1.57l-15.54-31.54Z"/>
        <path class="cls-3" d="M189.57,73.79c7.05,0,12.94-4.93,14.41-11.52l-8.13-16.5c-1.91-.9-4.03-1.41-6.28-1.41-8.15,0-14.77,6.59-14.77,14.71s6.61,14.71,14.77,14.71Z"/>
        <path class="cls-2" d="M139.17,119.88c9.75,0,17.65-7.87,17.65-17.58,0-8.38-5.89-15.38-13.77-17.15l-14.94,30.83c3.03,2.43,6.87,3.9,11.07,3.9Z"/>
        <path class="cls-5" d="M201.55,125.65c0-10.88-8.85-19.7-19.77-19.7s-19.77,8.82-19.77,19.7c0,1.94.29,3.8.82,5.57h37.91c.52-1.77.82-3.64.82-5.57Z"/>
      </g>
    </g>
  </g>
</svg>