<?xml version="1.0" encoding="UTF-8"?>
<svg id="Layer_1" data-name="Layer 1" xmlns="http://www.w3.org/2000/svg" version="1.1" viewBox="0 0 768 768">
  <defs>
    <style>
      .cls-1 {
        fill: #85aecc;
      }

      .cls-1, .cls-2 {
        stroke-width: 0px;
      }

      .cls-2 {
        fill: #7499b3;
      }
    </style>
  </defs>
  <path class="cls-2" d="M58.27,750.58c-19.61,0-40.77-15.61-40.77-40.82V58.24c0-11.19,4.37-21.56,12.32-29.22,7.65-7.37,18.01-11.6,28.45-11.6,6.27,0,12.39,1.47,18.2,4.38l651.52,325.76c14.1,7.05,22.52,20.67,22.52,36.44,0,15.77-8.42,29.39-22.52,36.44L76.46,746.2c-5.81,2.9-11.93,4.38-18.19,4.38h0Z"/>
  <path class="cls-1" d="M58.27,34.92c3.53,0,7.01.85,10.37,2.53l651.53,325.76c11.6,5.8,12.85,16.47,12.85,20.79s-1.25,14.99-12.85,20.79L68.64,730.55c-3.36,1.68-6.85,2.53-10.37,2.53-11.19,0-23.27-8.91-23.27-23.32V58.24c0-14.4,12.08-23.32,23.27-23.32M58.27-.08C27.7-.08,0,24.48,0,58.24v651.53C0,743.52,27.7,768.08,58.27,768.08c8.63,0,17.49-1.96,26.02-6.22l651.53-325.76c42.93-21.46,42.93-82.72,0-104.19L84.29,6.14C75.76,1.88,66.9-.08,58.27-.08h0Z"/>
</svg>