<?xml version="1.0" encoding="UTF-8"?>
<svg id="Layer_1" data-name="Layer 1" xmlns="http://www.w3.org/2000/svg" version="1.1" viewBox="0 0 768 768">
  <defs>
    <style>
      .cls-1 {
        fill: #85aecc;
      }

      .cls-1, .cls-2 {
        stroke-width: 0px;
      }

      .cls-2 {
        fill: #7499b3;
      }
    </style>
  </defs>
  <path class="cls-2" d="M709.75,750.58c-6.27,0-12.39-1.47-18.2-4.38L40.02,420.44c-14.1-7.05-22.52-20.67-22.52-36.44,0-15.77,8.42-29.39,22.52-36.44L691.55,21.8c5.81-2.9,11.93-4.38,18.2-4.38,19.61,0,40.77,15.61,40.77,40.82v651.53c0,11.19-4.37,21.56-12.32,29.22-7.64,7.37-18.01,11.6-28.44,11.6h0Z"/>
  <path class="cls-1" d="M709.74,34.92c11.19,0,23.27,8.91,23.27,23.32v651.53c0,14.4-12.08,23.32-23.27,23.32-3.53,0-7.01-.85-10.37-2.53L47.85,404.79c-11.6-5.8-12.85-16.47-12.85-20.79s1.25-14.99,12.85-20.79L699.37,37.45c3.36-1.68,6.85-2.53,10.37-2.53M709.74-.08c-8.63,0-17.49,1.96-26.02,6.22L32.2,331.91c-42.93,21.46-42.93,82.72,0,104.19l651.53,325.76c8.53,4.26,17.39,6.22,26.02,6.22,30.56,0,58.27-24.56,58.27-58.32V58.24c0-33.76-27.7-58.32-58.27-58.32h0Z"/>
</svg>