<?xml version="1.0" encoding="UTF-8"?>
<svg id="Layer_1" data-name="Layer 1" xmlns="http://www.w3.org/2000/svg" xmlns:xlink="http://www.w3.org/1999/xlink" version="1.1" viewBox="0 0 360 660">
  <defs>
    <style>
      .cls-1 {
        fill: #472711;
      }

      .cls-1, .cls-2, .cls-3, .cls-4, .cls-5 {
        stroke-width: 0px;
      }

      .cls-2 {
        fill: #ed1c24;
      }

      .cls-3 {
        fill: #fccaa6;
      }

      .cls-6 {
        fill: none;
        stroke: url(#linear-gradient);
        stroke-miterlimit: 10;
        stroke-width: 9.8px;
      }

      .cls-4 {
        fill: #fff;
      }

      .cls-5 {
        fill: #231f20;
      }
    </style>
    <linearGradient id="linear-gradient" x1="180" y1="565.5" x2="180" y2="607.6" gradientTransform="translate(0 662) scale(1 -1)" gradientUnits="userSpaceOnUse">
      <stop offset="0" stop-color="#fff"/>
      <stop offset="0" stop-color="#000"/>
    </linearGradient>
  </defs>
  <path class="cls-1" d="M1.1,242.6l-.7-83.4c0-19.3,15.7-35,35-35h290.6c19.3,0,35.1,15.6,35.1,35v85.2M179.6,468.8c-16-49.7-29.1-107.1-36.3-158.8h70.8c-13.3,50.5-30.3,106.2-34.5,158.8"/>
  <g>
    <path class="cls-5" d="M104.9,447.1l-13.3,104.2c-.3,2.3,3.1,3,3.7.8l28.1-101.2-18.5-3.8h0Z"/>
    <path class="cls-5" d="M255.1,447.1l13.3,104.2c.3,2.3-3.1,3-3.7.8l-28.1-101.2,18.5-3.8h0Z"/>
  </g>
  <g>
    <path class="cls-5" d="M206.1,553.5l7.8,104.8c.2,2.4,3.6,2.3,3.8,0l7.3-104.8h-18.9Z"/>
    <path class="cls-5" d="M135,553.5l7.8,104.8c.2,2.4,3.6,2.3,3.8,0l7.3-104.8h-18.9Z"/>
  </g>
  <path class="cls-2" d="M238.4,377.8l35.2,88c1,2.6-.9,5.5-3.7,5.5h-33.7c-2.5,0-4.3,2.2-3.9,4.6l12.2,75.1c.4,2.4-1.5,4.6-3.9,4.6h-121.1c-2.5,0-4.3-2.2-3.9-4.6l12.2-75.1c.4-2.4-1.5-4.6-3.9-4.6h-33.7c-2.8,0-4.8-2.8-3.7-5.5l35.2-88c.6-1.5,2.1-2.5,3.7-2.5h109.4c1.6,0,3.1,1,3.7,2.5h0Z"/>
  <path class="cls-4" d="M185,391.8l2.1,6.4c2.3,7,8.9,11.8,16.3,11.8h6.8c5.1,0,7.2,6.5,3.1,9.5l-5.4,3.9c-6,4.4-8.5,12.1-6.2,19.2l2.1,6.3c1.6,4.8-3.9,8.9-8.1,5.9l-5.5-4c-6-4.3-14.1-4.3-20.1,0l-5.5,4c-4.1,3-9.6-1-8.1-5.9l2.1-6.3c2.3-7.1-.2-14.8-6.2-19.2l-5.4-3.9c-4.1-3-2-9.5,3.1-9.5h6.8c7.4,0,14-4.8,16.3-11.8l2.1-6.4c1.6-4.8,8.4-4.8,10,0h-.3Z"/>
  <rect class="cls-3" x=".7" y="124.2" width="360" height="236.7" rx="35" ry="35"/>
  <path class="cls-5" d="M77.7,257.9c-2.9,5.7-4.5,12.2-4.5,19.1,0,24.4,20.3,44,44.9,43.1,22.4-.8,40.6-18.9,41.6-41.2.2-4.2-.2-8.2-1.2-12s-2.8-8.6-5.2-12.4c-2.4-3.8-6.2-6.6-10.6-7.6-7.3-1.7-15.2-2.6-23.3-2.6-11.5,0-22.4,1.8-32.2,5-4.2,1.4-7.7,4.5-9.7,8.5h.2Z"/>
  <path class="cls-5" d="M283.7,257.9c2.9,5.7,4.5,12.2,4.5,19.1,0,24.4-20.3,44-44.9,43.1-22.4-.8-40.6-18.9-41.6-41.2-.4-9,2-17.4,6.3-24.4,2.4-3.8,6.2-6.6,10.6-7.6,7.3-1.7,15.2-2.6,23.3-2.6,11.5,0,22.4,1.8,32.1,5,4.2,1.4,7.7,4.5,9.7,8.5h0Z"/>
  <path class="cls-1" d="M182.5,139C182.5,221.5.7,242.6.7,242.6l-.7-83.4c0-19.3,15.7-35,35-35h290.6c19.3,0,35.1,15.6,35.1,35v85.2s-178.2-22.9-178.2-105.3h0Z"/>
  <ellipse class="cls-6" cx="180" cy="75.4" rx="125.7" ry="16.2"/>
</svg>