<?xml version="1.0" encoding="UTF-8"?>
<svg xmlns="http://www.w3.org/2000/svg" version="1.1" viewBox="0 0 360 660">
  <defs>
    <style>
      .cls-1 {
        fill: #92278f;
      }

      .cls-2 {
        fill: #fccaa6;
      }

      .cls-3 {
        fill: #231f20;
      }

      .cls-4 {
        fill: #fff;
      }

      .cls-5 {
        fill: #ed1c24;
      }

      .cls-6 {
        fill: #8b5e3c;
      }

      .cls-7 {
        fill: #ec008c;
      }

      .cls-8 {
        fill: #ef4136;
      }

      .cls-9 {
        fill: #fbb040;
      }

      .cls-10 {
        fill: #27aae1;
      }

      .cls-11 {
        fill: #ed0b77;
      }
    </style>
  </defs>
  <!-- Generator: Adobe Illustrator 28.7.0, SVG Export Plug-In . SVG Version: 1.2.0 Build 136)  -->
  <g>
    <g id="Layer_1">
      <path class="cls-6" d="M0,461.43V166.09C0,146.79,15.71,131.13,35.09,131.13h289.82c19.38,0,35.09,15.65,35.09,34.96v295.34c0,19.31-15.71,34.96-35.09,34.96H35.09C15.71,496.4,0,480.74,0,461.43Z"/>
      <g>
        <path class="cls-3" d="M104.89,447.09l-13.33,104.2c-.3,2.35,3.11,3.03,3.74.75l28.09-101.2-18.5-3.75Z"/>
        <path class="cls-3" d="M255.11,447.09l13.33,104.2c.3,2.35-3.11,3.03-3.74.75l-28.09-101.2,18.5-3.75Z"/>
      </g>
      <rect class="cls-2" x="0" y="131.13" width="360" height="236.75" rx="35" ry="35"/>
      <g>
        <path class="cls-3" d="M206.12,553.47l7.79,104.76c.18,2.36,3.65,2.35,3.82,0l7.27-104.75h-18.88Z"/>
        <path class="cls-3" d="M135,553.47l7.79,104.76c.18,2.36,3.65,2.35,3.82,0l7.27-104.75h-18.88Z"/>
      </g>
      <path class="cls-5" d="M238.41,377.8l35.22,88.03c1.05,2.62-.89,5.46-3.72,5.46h-33.67c-2.46,0-4.34,2.2-3.95,4.62l12.17,75.08c.39,2.42-1.48,4.62-3.95,4.62h-121.05c-2.46,0-4.34-2.2-3.95-4.62l12.17-75.08c.39-2.42-1.48-4.62-3.95-4.62h-33.67c-2.83,0-4.76-2.84-3.72-5.46l35.22-88.03c.61-1.52,2.08-2.51,3.72-2.51h109.4c1.64,0,3.11.99,3.72,2.51Z"/>
      <path class="cls-6" d="M0,249.51l115.75-50.38c40.96-17.83,87.54-17.83,128.5,0l115.75,50.38v-83.42c0-19.31-15.71-34.96-35.09-34.96H35.09c-19.38,0-35.09,15.65-35.09,34.96v83.42Z"/>
      <path class="cls-3" d="M77.03,313.48c1.99,3.99,5.47,7.07,9.72,8.49,9.73,3.23,20.63,5.05,32.15,5.05,8.14,0,15.98-.91,23.3-2.58,4.39-1,8.2-3.74,10.55-7.57,4.34-7.05,6.72-15.43,6.32-24.4-.99-22.27-19.26-40.34-41.62-41.16-24.65-.9-44.91,18.74-44.91,43.1,0,6.85,1.62,13.32,4.49,19.06Z"/>
      <path class="cls-3" d="M282.97,313.48c-1.99,3.99-5.47,7.07-9.72,8.49-9.73,3.23-20.63,5.05-32.15,5.05-8.14,0-15.98-.91-23.3-2.58-4.39-1-8.2-3.74-10.55-7.57-4.34-7.05-6.72-15.43-6.32-24.4.99-22.27,19.26-40.34,41.62-41.16,24.65-.9,44.91,18.74,44.91,43.1,0,6.85-1.62,13.32-4.49,19.06Z"/>
      <g>
        <polygon class="cls-9" points="120.82 131.22 237.78 131.22 178.81 11.57 120.82 131.22"/>
        <ellipse class="cls-11" cx="179.3" cy="18.21" rx="18.28" ry="18.21"/>
        <path class="cls-1" d="M213.53,82.02c-5.57,2.96-9.37,8.8-9.37,15.53,0,9.71,7.9,17.58,17.65,17.58,2.59,0,5.05-.57,7.26-1.57l-15.54-31.54Z"/>
        <path class="cls-8" d="M189.57,73.79c7.05,0,12.94-4.93,14.41-11.52l-8.13-16.5c-1.91-.9-4.03-1.41-6.28-1.41-8.15,0-14.77,6.59-14.77,14.71s6.61,14.71,14.77,14.71Z"/>
        <path class="cls-7" d="M139.17,119.88c9.75,0,17.65-7.87,17.65-17.58,0-8.38-5.89-15.38-13.77-17.15l-14.94,30.83c3.03,2.43,6.87,3.9,11.07,3.9Z"/>
        <path class="cls-10" d="M201.55,125.65c0-10.88-8.85-19.7-19.77-19.7s-19.77,8.82-19.77,19.7c0,1.94.29,3.8.82,5.57h37.91c.52-1.77.82-3.64.82-5.57Z"/>
      </g>
      <path class="cls-4" d="M184.99,391.79l2.09,6.41c2.3,7.05,8.87,11.82,16.28,11.82h6.76c5.09,0,7.2,6.52,3.08,9.5l-5.4,3.91c-6.02,4.36-8.54,12.11-6.24,19.18l2.06,6.33c1.58,4.83-3.95,8.86-8.07,5.88l-5.52-3.99c-5.99-4.34-14.09-4.34-20.08,0l-5.52,3.99c-4.12,2.98-9.64-1.05-8.07-5.88l2.06-6.33c2.31-7.07-.22-14.82-6.24-19.18l-5.4-3.91c-4.12-2.98-2.01-9.5,3.08-9.5h6.76c7.41,0,13.98-4.77,16.28-11.82l2.09-6.41c1.57-4.83,8.4-4.83,9.98,0Z"/>
    </g>
  </g>
</svg>