<?xml version="1.0" encoding="UTF-8"?>
<svg id="Layer_1" data-name="Layer 1" xmlns="http://www.w3.org/2000/svg" version="1.1" viewBox="0 0 360 660">
  <defs>
    <style>
      .cls-1 {
        fill: #27aae1;
      }

      .cls-1, .cls-2, .cls-3, .cls-4, .cls-5, .cls-6, .cls-7, .cls-8, .cls-9, .cls-10, .cls-11 {
        stroke-width: 0px;
      }

      .cls-2 {
        fill: #fbb040;
      }

      .cls-3 {
        fill: #472711;
      }

      .cls-4 {
        fill: #ed1c24;
      }

      .cls-5 {
        fill: #ef4136;
      }

      .cls-6 {
        fill: #ec008c;
      }

      .cls-7 {
        fill: #fccaa6;
      }

      .cls-8 {
        fill: #92278f;
      }

      .cls-9 {
        fill: #ed0b77;
      }

      .cls-10 {
        fill: #fff;
      }

      .cls-11 {
        fill: #231f20;
      }
    </style>
  </defs>
  <path class="cls-3" d="M-424.9,223.6l-.7-83.4c0-19.3,15.7-35,35-35H-99.9c19.3,0,35.1,15.6,35.1,35v85.2M-246.3,449.8c-16-49.7-29.1-107.1-36.3-158.8h0s70.8,0,70.8,0h0c-13.3,50.5-30.3,106.2-34.5,158.8"/>
  <g>
    <path class="cls-11" d="M104.9,447.1l-13.3,104.2c-.3,2.3,3.1,3,3.7.8l28.1-101.2-18.5-3.8h0Z"/>
    <path class="cls-11" d="M255.1,447.1l13.3,104.2c.3,2.3-3.1,3-3.7.8l-28.1-101.2,18.5-3.8h0Z"/>
  </g>
  <g>
    <path class="cls-11" d="M206.1,553.5l7.8,104.8c.2,2.4,3.6,2.3,3.8,0l7.3-104.8h-18.9Z"/>
    <path class="cls-11" d="M135,553.5l7.8,104.8c.2,2.4,3.6,2.3,3.8,0l7.3-104.8h-18.9Z"/>
  </g>
  <path class="cls-4" d="M238.4,377.8l35.2,88c1,2.6-.9,5.5-3.7,5.5h-33.7c-2.5,0-4.3,2.2-3.9,4.6l12.2,75.1c.4,2.4-1.5,4.6-3.9,4.6h-121.1c-2.5,0-4.3-2.2-3.9-4.6l12.2-75.1c.4-2.4-1.5-4.6-3.9-4.6h-33.7c-2.8,0-4.8-2.8-3.7-5.5l35.2-88c.6-1.5,2.1-2.5,3.7-2.5h109.4c1.6,0,3.1,1,3.7,2.5h0Z"/>
  <g>
    <polygon class="cls-2" points="395.2 164.2 512.2 164.2 453.2 44.5 395.2 164.2"/>
    <ellipse class="cls-9" cx="453.7" cy="51.2" rx="18.3" ry="18.2"/>
    <path class="cls-8" d="M487.9,115c-5.6,3-9.4,8.8-9.4,15.5,0,9.7,7.9,17.6,17.6,17.6s5.1-.6,7.3-1.6l-15.5-31.5Z"/>
    <path class="cls-5" d="M464,106.8c7.1,0,12.9-4.9,14.4-11.5l-8.1-16.5c-1.9-.9-4-1.4-6.3-1.4-8.1,0-14.8,6.6-14.8,14.7s6.6,14.7,14.8,14.7h0Z"/>
    <path class="cls-6" d="M413.6,152.8c9.8,0,17.6-7.9,17.6-17.6s-5.9-15.4-13.8-17.2l-14.9,30.8c3,2.4,6.9,3.9,11.1,3.9h0Z"/>
    <path class="cls-1" d="M476,158.6c0-10.9-8.9-19.7-19.8-19.7s-19.8,8.8-19.8,19.7.3,3.8.8,5.6h37.9c.5-1.8.8-3.6.8-5.6h0Z"/>
  </g>
  <path class="cls-10" d="M185,391.8l2.1,6.4c2.3,7,8.9,11.8,16.3,11.8h6.8c5.1,0,7.2,6.5,3.1,9.5l-5.4,3.9c-6,4.4-8.5,12.1-6.2,19.2l2.1,6.3c1.6,4.8-3.9,8.9-8.1,5.9l-5.5-4c-6-4.3-14.1-4.3-20.1,0l-5.5,4c-4.1,3-9.6-1-8.1-5.9l2.1-6.3c2.3-7.1-.2-14.8-6.2-19.2l-5.4-3.9c-4.1-3-2-9.5,3.1-9.5h6.8c7.4,0,14-4.8,16.3-11.8l2.1-6.4c1.6-4.8,8.4-4.8,10,0h0Z"/>
  <rect class="cls-7" x=".7" y="124.2" width="360" height="236.7" rx="35" ry="35"/>
  <path class="cls-11" d="M77.7,306.6c2,4,5.5,7.1,9.7,8.5,9.7,3.2,20.6,5,32.2,5s16-.9,23.3-2.6c4.4-1,8.2-3.7,10.6-7.6,4.3-7,6.7-15.4,6.3-24.4-1-22.3-19.3-40.3-41.6-41.2-24.7-.9-44.9,18.7-44.9,43.1s1.6,13.3,4.5,19.1h0Z"/>
  <path class="cls-11" d="M283.7,306.6c-2,4-5.5,7.1-9.7,8.5-9.7,3.2-20.6,5-32.1,5s-16-.9-23.3-2.6c-4.4-1-8.2-3.7-10.6-7.6-4.3-7-6.7-15.4-6.3-24.4,1-22.3,19.3-40.3,41.6-41.2,24.6-.9,44.9,18.7,44.9,43.1s-1.6,13.3-4.5,19.1h0Z"/>
  <path class="cls-3" d="M182.5,139C182.5,221.5.7,242.6.7,242.6l-.7-83.4c0-19.3,15.7-35,35-35h290.6c19.3,0,35.1,15.6,35.1,35v85.2s-178.2-22.9-178.2-105.3Z"/>
</svg>