<?xml version="1.0" encoding="UTF-8"?>
<svg xmlns="http://www.w3.org/2000/svg" version="1.1" viewBox="0 0 360 660">
  <defs>
    <style>
      .cls-1 {
        fill: #231f20;
      }
    </style>
  </defs>
  <!-- Generator: Adobe Illustrator 28.7.0, SVG Export Plug-In . SVG Version: 1.2.0 Build 136)  -->
  <g>
    <g id="Layer_1">
      <g>
        <path class="cls-1" d="M77.03,313.48c1.99,3.99,5.47,7.07,9.72,8.49,9.73,3.23,20.63,5.05,32.15,5.05,8.14,0,15.98-.91,23.3-2.58,4.39-1,8.2-3.74,10.55-7.57,4.34-7.05,6.72-15.43,6.32-24.4-.99-22.27-19.26-40.34-41.62-41.16-24.65-.9-44.91,18.74-44.91,43.1,0,6.85,1.62,13.32,4.49,19.06Z"/>
        <path class="cls-1" d="M282.97,313.48c-1.99,3.99-5.47,7.07-9.72,8.49-9.73,3.23-20.63,5.05-32.15,5.05-8.14,0-15.98-.91-23.3-2.58-4.39-1-8.2-3.74-10.55-7.57-4.34-7.05-6.72-15.43-6.32-24.4.99-22.27,19.26-40.34,41.62-41.16,24.65-.9,44.91,18.74,44.91,43.1,0,6.85-1.62,13.32-4.49,19.06Z"/>
      </g>
    </g>
  </g>
</svg>