<?xml version="1.0" encoding="UTF-8"?>
<svg xmlns="http://www.w3.org/2000/svg" version="1.1" viewBox="0 0 360 660">
  <defs>
    <style>
      .cls-1 {
        fill: #ed1c24;
      }
    </style>
  </defs>
  <!-- Generator: Adobe Illustrator 28.7.0, SVG Export Plug-In . SVG Version: 1.2.0 Build 136)  -->
  <g>
    <g id="Layer_1">
      <path class="cls-1" d="M238.41,377.8l35.22,88.03c1.05,2.62-.89,5.46-3.72,5.46h-33.67c-2.46,0-4.34,2.2-3.95,4.62l12.17,75.08c.39,2.42-1.48,4.62-3.95,4.62h-121.05c-2.46,0-4.34-2.2-3.95-4.62l12.17-75.08c.39-2.42-1.48-4.62-3.95-4.62h-33.67c-2.83,0-4.76-2.84-3.72-5.46l35.22-88.03c.61-1.52,2.08-2.51,3.72-2.51h109.4c1.64,0,3.11.99,3.72,2.51Z"/>
    </g>
  </g>
</svg>