<?xml version="1.0" encoding="UTF-8"?>
<svg id="Layer_1" data-name="Layer 1" xmlns="http://www.w3.org/2000/svg" version="1.1" viewBox="0 0 360 660">
  <defs>
    <style>
      .cls-1 {
        fill: #000;
        stroke: #000;
        stroke-miterlimit: 10;
        stroke-width: .7px;
      }
    </style>
  </defs>
  <path class="cls-1" d="M209.7,375.3c.3-1.1.6-2.1,1-3h0s0,0,0,0c2.5-6.6,6.3-9.9,10.1-11.4h-42.6l-9.8,14.4h41.4Z"/>
  <path class="cls-1" d="M236.2,471.3c-2.1,0-3.6,1.5-3.9,3.4,1.3,1.8,2.4,3.5,3.4,5.3l7.1-6.5-.6-2.1h-6.1Z"/>
  <path class="cls-1" d="M233.3,360.9l-14.9,12.4,6.1.8c-.8.6-1.6,1-2.4,1.3h7.5c3-11,3.7-13.7,3.9-14.4h-.2Z"/>
  <path class="cls-1" d="M122.5,508.6l5.3-32.7c.4-2.4-1.5-4.6-3.9-4.6h-6.2l-12,43.1.7-1.1,10.1,3.8,5.9-8.6Z"/>
  <polygon class="cls-1" points="94.1 531.4 101 477.4 98.8 480.7 93.7 484.7 83.2 500 86.1 502 83.5 505.8 93.7 509.4 48 576.3 43.7 575.9 8.5 627.5 25.2 639 60.3 587.5 58.5 583.5 94.1 531.4"/>
  <path class="cls-1" d="M264.2,442.3l3.4,8.5,2-1.8s-2-2.6-5.4-6.7Z"/>
  <polygon class="cls-1" points="234.4 360.9 268.2 369.8 271.3 372 275.4 360.9 234.4 360.9"/>
</svg>