<?xml version="1.0" encoding="UTF-8"?>
<svg id="Layer_1" data-name="Layer 1" xmlns="http://www.w3.org/2000/svg" version="1.1" viewBox="0 0 360 660">
  <defs>
    <style>
      .cls-1 {
        fill: #000;
        stroke: #000;
      }

      .cls-1, .cls-2 {
        stroke-miterlimit: 10;
        stroke-width: .7px;
      }

      .cls-2 {
        fill: none;
        stroke: #fff;
      }
    </style>
  </defs>
  <g>
    <path class="cls-1" d="M9.5,627.5l35.2-51.6,4.3.4,45.7-66.9-10.2-3.6,2.6-3.8-2.9-2,10.5-15.3,5.1-3.9,47.3-69.3,3.2-8.3,58.2-85.2,5.8,4,4.3-6.3,9.9,6.7,1.9-2.8-1.4-1,55.3-81,8.9,6.1,34.6,30.9-12.8,18.7-5.6-3.8-68.2,37.3-3.7-2.5-2.3,3.3,7.8,5.4-2.1,3.1s-2.6,8.2.7,8.8,38.2,6.7,38.2,6.7l-7.7,20.6-3.1-2.1-34.7-9.2s0,0-4.8,17.7c-3.1,11.4-20.3,3.1-20.3,3.1l-1,2.3-.2,3.4,8.9,6.9,3.3-.3,3.8,2.6-1.5,2.3c25.7,21.6,47.9,50.5,47.9,50.5l-33.9,30.9c-10.9-18.7-41.4-43.2-41.4-43.2l-1.3,1.9-3.7-2.5-.8-3.4-7-5.1-1.1-3.7-63.7,93.3-10.1-3.8-48,70.2,1.8,4-35.1,51.4-16.7-11.4Z"/>
    <path class="cls-2" d="M234.5,360.7s-21-7.9-25.1,20.8"/>
  </g>
  <path class="cls-2" d="M211.7,372.3s6.6,6.8,13.7,1.7"/>
</svg>