<?xml version="1.0" encoding="UTF-8"?>
<svg id="Layer_1" data-name="Layer 1" xmlns="http://www.w3.org/2000/svg" xmlns:xlink="http://www.w3.org/1999/xlink" version="1.1" viewBox="0 0 360 660">
  <defs>
    <style>
      .cls-1, .cls-2 {
        stroke-width: 0px;
      }

      .cls-1, .cls-3 {
        fill: none;
      }

      .cls-2 {
        fill: url(#radial-gradient);
      }

      .cls-3 {
        stroke: url(#linear-gradient);
        stroke-miterlimit: 10;
        stroke-width: 9.8px;
      }
    </style>
    <linearGradient id="linear-gradient" x1="180" y1="96.5" x2="180" y2="54.4" gradientUnits="userSpaceOnUse">
      <stop offset=".4" stop-color="#f6c865"/>
      <stop offset=".6" stop-color="#f2bd03"/>
    </linearGradient>
    <radialGradient id="radial-gradient" cx="179.9" cy="85.9" fx="179.9" fy="85.9" r="119.6" gradientUnits="userSpaceOnUse">
      <stop offset=".5" stop-color="#8c4e03"/>
      <stop offset=".6" stop-color="rgba(146, 82, 4, .9)" stop-opacity=".9"/>
      <stop offset=".8" stop-color="rgba(164, 94, 9, .5)" stop-opacity=".5"/>
      <stop offset="1" stop-color="#bf7011" stop-opacity="0"/>
    </radialGradient>
  </defs>
  <ellipse class="cls-3" cx="180" cy="75.4" rx="125.7" ry="16.2"/>
  <path class="cls-2" d="M269.5,91.7c4.8-.6,9-1.2,12.7-1.9,17.6-3.3,16.6-14.4,16.6-14.4h0c-3.7,1.7-13,4.6-35.4,7.2-22.9,2.6-52.5,4.1-83.4,4.1s-60.5-1.5-83.4-4.1c-22.3-2.6-31.6-5.5-35.4-7.1,0,.4-3.3,10.5,13.3,13.7s0,0,0,0c4.5.9,9.7,1.7,15.9,2.5,23.9,3.1,55.7,4.8,89.5,4.8s65.6-1.7,89.5-4.8Z"/>
  <line class="cls-1" x1="184.2" y1="96.5" x2="184.2" y2="124.2"/>
</svg>