<?xml version="1.0" encoding="UTF-8"?>
<svg id="Layer_1" data-name="Layer 1" xmlns="http://www.w3.org/2000/svg" version="1.1" viewBox="0 0 360 660">
  <defs>
    <style>
      .cls-1 {
        fill: #000;
      }

      .cls-1, .cls-2, .cls-3 {
        stroke-width: 0px;
      }

      .cls-4 {
        fill: none;
        stroke: #fff;
        stroke-miterlimit: 10;
        stroke-width: 1.4px;
      }

      .cls-2 {
        fill: #fff;
      }

      .cls-3 {
        fill: #536d6a;
      }
    </style>
  </defs>
  <path class="cls-1" d="M325.8,360.9"/>
  <g>
    <path class="cls-2" d="M200.9,433.8c-7.3-4.6,4.7-15.7,9.5,6M200.9,433.8c-7.3-4.6-12.2,10.9,9.5,6"/>
    <g>
      <line class="cls-3" x1="168.2" y1="413.1" x2="200.9" y2="433.8"/>
      <g>
        <line class="cls-4" x1="168.2" y1="413.1" x2="200.9" y2="433.8"/>
        <polygon class="cls-2" points="168.6 412.5 168.9 405.8 167.5 404.9 167.2 411.6 165.9 410.8 166.2 404.1 164.9 403.2 164.6 410 163.2 409.1 163.5 402.4 162.2 401.5 161.9 408.3 160.5 407.4 159.8 408.6 161.2 409.4 155.2 412.5 156.5 413.4 162.5 410.3 163.8 411.1 157.9 414.2 159.2 415.1 165.2 412 166.5 412.8 160.5 415.9 161.9 416.8 167.8 413.6 168.6 412.5"/>
      </g>
    </g>
  </g>
</svg>