<?xml version="1.0" encoding="UTF-8"?>
<svg id="Layer_1" data-name="Layer 1" xmlns="http://www.w3.org/2000/svg" version="1.1" viewBox="0 0 360 660">
  <defs>
    <style>
      .cls-1 {
        fill: #9d0208;
      }

      .cls-1, .cls-2 {
        stroke-width: 0px;
      }

      .cls-2 {
        fill: #d00000;
      }
    </style>
  </defs>
  <g>
    <path class="cls-2" d="M256.2,127.2c22.5-21.1,6-73.2,0-90-.5-1.5,1.2-2.7,2.4-1.6,13.3,11.6,51.3,49.4,36.6,91.7"/>
    <path class="cls-1" d="M256.2,37.1c-.3-.8.2-1.6.8-1.9,5.2,8.2,41.7,53.3,21,91.9h-21.8c22.5-21.1,6-73.2,0-90Z"/>
  </g>
  <g>
    <path class="cls-2" d="M103.8,127.2c-22.5-21.1-6-73.2,0-90,.5-1.5-1.2-2.7-2.4-1.6-13.3,11.6-51.3,49.4-36.6,91.7"/>
    <path class="cls-1" d="M101.4,35.5c-13.3,11.6-51.3,49.4-36.6,91.7h20.7c-24-40.2,12.9-86,17.4-91.9-.5-.2-1,0-1.5.3h0Z"/>
  </g>
</svg>