<?xml version="1.0" encoding="UTF-8"?>
<svg id="Layer_1" data-name="Layer 1" xmlns="http://www.w3.org/2000/svg" version="1.1" viewBox="0 0 360 660">
  <defs>
    <style>
      .cls-1 {
        fill: #27aae1;
      }

      .cls-1, .cls-2, .cls-3, .cls-4, .cls-5, .cls-6 {
        stroke-width: 0px;
      }

      .cls-2 {
        fill: #fbb040;
      }

      .cls-3 {
        fill: #ef4136;
      }

      .cls-4 {
        fill: #ec008c;
      }

      .cls-5 {
        fill: #92278f;
      }

      .cls-6 {
        fill: #ed0b77;
      }
    </style>
  </defs>
  <g id="Layer_1-2" data-name="Layer 1">
    <g>
      <polygon class="cls-2" points="120.8 130.2 237.8 130.2 178.8 10.6 120.8 130.2"/>
      <ellipse class="cls-6" cx="179.3" cy="17.2" rx="18.3" ry="18.2"/>
      <path class="cls-5" d="M213.5,81c-5.6,3-9.4,8.8-9.4,15.5,0,9.7,7.9,17.6,17.6,17.6s5.1-.6,7.3-1.6l-15.5-31.5Z"/>
      <path class="cls-3" d="M189.6,72.8c7.1,0,12.9-4.9,14.4-11.5l-8.1-16.5c-1.9-.9-4-1.4-6.3-1.4-8.1,0-14.8,6.6-14.8,14.7s6.6,14.7,14.8,14.7h0Z"/>
      <path class="cls-4" d="M139.2,118.9c9.8,0,17.6-7.9,17.6-17.6s-5.9-15.4-13.8-17.2l-14.9,30.8c3,2.4,6.9,3.9,11.1,3.9h0Z"/>
      <path class="cls-1" d="M201.6,124.7c0-10.9-8.9-19.7-19.8-19.7s-19.8,8.8-19.8,19.7.3,3.8.8,5.6h37.9c.5-1.8.8-3.6.8-5.6h0Z"/>
    </g>
  </g>
</svg>