<?xml version="1.0" encoding="UTF-8"?>
<svg id="Layer_1" data-name="Layer 1" xmlns="http://www.w3.org/2000/svg" version="1.1" viewBox="0 0 360 660">
  <defs>
    <style>
      .cls-1 {
        fill: #fff;
        stroke-width: 0px;
      }
    </style>
  </defs>
  <path class="cls-1" d="M185,391.8l2.1,6.4c2.3,7,8.9,11.8,16.3,11.8h6.8c5.1,0,7.2,6.5,3.1,9.5l-5.4,3.9c-6,4.4-8.5,12.1-6.2,19.2l2.1,6.3c1.6,4.8-3.9,8.9-8.1,5.9l-5.5-4c-6-4.3-14.1-4.3-20.1,0l-5.5,4c-4.1,3-9.6-1-8.1-5.9l2.1-6.3c2.3-7.1-.2-14.8-6.2-19.2l-5.4-3.9c-4.1-3-2-9.5,3.1-9.5h6.8c7.4,0,14-4.8,16.3-11.8l2.1-6.4c1.6-4.8,8.4-4.8,10,0h-.3Z"/>
</svg>