<?xml version="1.0" encoding="UTF-8"?>
<svg id="Layer_1" data-name="Layer 1" xmlns="http://www.w3.org/2000/svg" version="1.1" viewBox="0 0 360 660">
  <defs>
    <style>
      .cls-1 {
        fill: #efeae1;
      }

      .cls-1, .cls-2 {
        stroke-width: 0px;
      }

      .cls-2 {
        fill: #e0d7bd;
      }
    </style>
  </defs>
  <g>
    <path class="cls-1" d="M115,481.2c2.6-3.5,5.4-6.8,8.4-9.9h-5.7l-2.8,9.9Z"/>
    <path class="cls-1" d="M101.8,471.3h-11.6c-2.8,0-4.8-2.8-3.7-5.5l22.3-55.7c-23-9.1-46.4-24.3-62.9-49.2h-10.1c-3.7,0-7.2-.6-10.5-1.6l-6.6,40.4s0,94.5,52.1,165.2c3.3,4.5,10.3,2.9,11.4-2.5,2.3-11.7,6.7-29.4,14.1-47.3l5.6-43.8Z"/>
  </g>
  <g>
    <path class="cls-1" d="M242.3,471.3h-5.7c3,3.1,5.8,6.4,8.4,9.9l-2.8-9.9Z"/>
    <path class="cls-1" d="M334.9,359.7c-2.9.8-6,1.2-9.2,1.2h-11.5c-16.5,24.9-39.9,40-62.8,49.1l22.3,55.8c1,2.6-.9,5.5-3.7,5.5h-11.7l5.6,43.7c7.4,18,11.8,35.7,14.1,47.4,1.1,5.4,8.1,6.9,11.4,2.5,52.1-70.8,52.1-165.2,52.1-165.2l-6.5-40Z"/>
  </g>
  <g>
    <path class="cls-2" d="M306.3,360.9c-14.7,21.3-36.9,32.8-59.1,38.8l4.8,12c36.8-12.8,56.1-33.3,66.4-50.8h-12Z"/>
    <path class="cls-2" d="M334.8,359.7l6.5,40s.2-20.1-.5-42.2c-1.9.9-3.9,1.6-6,2.2Z"/>
  </g>
  <g>
    <path class="cls-2" d="M19.3,356.8c-.8,22.4-.6,42.9-.6,42.9l6.6-40.4c-2.1-.7-4.1-1.5-6-2.5Z"/>
    <path class="cls-2" d="M53.7,360.9h-12c10.2,17.5,29.6,38,66.4,50.8l4.8-12c-22.2-6-44.5-17.4-59.2-38.8Z"/>
  </g>
</svg>